<svg width="24" height="24" viewBox="0 0 24 24" fill="none" xmlns="http://www.w3.org/2000/svg">
<path d="M22.2131 5.65605C21.4497 5.99374 20.6401 6.21552 19.8111 6.31405C20.6842 5.79119 21.3374 4.96879 21.6491 4.00005C20.8291 4.48805 19.9301 4.83005 18.9941 5.01505C18.3647 4.34163 17.5305 3.89501 16.6211 3.74463C15.7117 3.59425 14.7781 3.74854 13.9654 4.1835C13.1527 4.61846 12.5065 5.30973 12.1272 6.14984C11.748 6.98995 11.6569 7.93183 11.8681 8.82905C10.2051 8.74584 8.57809 8.31378 7.09287 7.56091C5.60764 6.80805 4.29736 5.75122 3.24713 4.45905C2.87542 5.0975 2.68008 5.82328 2.68113 6.56205C2.68113 8.01205 3.42012 9.29305 4.54112 10.043C3.87714 10.0221 3.22777 9.84279 2.64713 9.52005V9.57105C2.64709 10.5369 2.98116 11.4731 3.59266 12.2207C4.20415 12.9684 5.05544 13.4815 6.00212 13.673C5.38577 13.8403 4.73942 13.8649 4.11212 13.745C4.37905 14.5764 4.89934 15.3035 5.60012 15.8244C6.30091 16.3454 7.14708 16.6341 8.02013 16.65C7.15248 17.3315 6.15901 17.8352 5.09653 18.1324C4.03406 18.4296 2.92341 18.5144 1.82812 18.382C3.73985 19.6114 5.96523 20.2641 8.23812 20.262C15.9321 20.262 20.1381 13.889 20.1381 8.36205C20.1381 8.18205 20.1341 8.00005 20.1261 7.82105C20.9445 7.22941 21.6509 6.49661 22.2121 5.65705" fill="white"/>
</svg>
